<?xml version="1.0" encoding="utf-8"?><!-- Uploaded to: SVG Repo, www.svgrepo.com, Generator: SVG Repo Mixer Tools -->
<svg fill="#000000" width="800px" height="800px" viewBox="0 0 24 24" id="edit-user-8" data-name="Line Color" xmlns="http://www.w3.org/2000/svg" class="icon line-color"><path id="secondary" d="M20.71,6.09,15.8,11H13V8.2l4.91-4.91a1,1,0,0,1,1.4,0l1.4,1.4A1,1,0,0,1,20.71,6.09Z" style="fill: none; stroke: rgb(44, 169, 188); stroke-linecap: round; stroke-linejoin: round; stroke-width: 2;"></path><path id="primary" d="M16.89,15A7,7,0,0,1,19,20a1,1,0,0,1-1,1H4a1,1,0,0,1-1-1,7,7,0,0,1,3.06-5.78,1,1,0,0,0,.28-1.45A5.94,5.94,0,0,1,5,9a6,6,0,0,1,6.73-6c.22,0,.44.07.65.12" style="fill: none; stroke: rgb(0, 0, 0); stroke-linecap: round; stroke-linejoin: round; stroke-width: 2;"></path></svg>